<?xml version="1.0" encoding="UTF-8" standalone="no"?>
<!-- Created with Inkscape (http://www.inkscape.org/) -->

<svg
   width="72.760414mm"
   height="86.312637mm"
   viewBox="0 0 72.760414 86.312639"
   version="1.1"
   id="svg5"
   xml:space="preserve"
   inkscape:export-filename="golf-bag.png"
   inkscape:export-xdpi="96"
   inkscape:export-ydpi="96"
   xmlns:inkscape="http://www.inkscape.org/namespaces/inkscape"
   xmlns:sodipodi="http://sodipodi.sourceforge.net/DTD/sodipodi-0.dtd"
   xmlns="http://www.w3.org/2000/svg"
   xmlns:svg="http://www.w3.org/2000/svg"><sodipodi:namedview
     id="namedview7"
     pagecolor="#505050"
     bordercolor="#eeeeee"
     borderopacity="1"
     inkscape:showpageshadow="0"
     inkscape:pageopacity="0"
     inkscape:pagecheckerboard="0"
     inkscape:deskcolor="#505050"
     inkscape:document-units="mm"
     showgrid="false"
     inkscape:zoom="0.52724989"
     inkscape:cx="305.35806"
     inkscape:cy="377.43014"
     inkscape:window-width="1920"
     inkscape:window-height="1017"
     inkscape:window-x="1912"
     inkscape:window-y="-8"
     inkscape:window-maximized="1"
     inkscape:current-layer="layer1" /><defs
     id="defs2"><clipPath
       clipPathUnits="userSpaceOnUse"
       id="clipPath447"><rect
         style="fill:#cccccc;stroke-width:0.999999"
         id="rect449"
         width="995.73273"
         height="832.62225"
         x="-257.03357"
         y="-506.3808" /></clipPath></defs><g
     inkscape:label="Layer 1"
     inkscape:groupmode="layer"
     id="layer1"
     transform="translate(-6.2022296,-3.3945387)"><g
       id="g158"
       transform="matrix(0.26458333,0,0,0.26458333,-25.150895,3.3891292)"
       clip-path="url(#clipPath447)"><path
         d="M 233.5,294.5 A 7.5,7.5 0 0 0 226,287 H 126 a 7.5,7.5 0 0 0 -7.5,7.5 V 327 h 115 z"
         id="path132" /><path
         d="M 233.5,434.5 V 342 h -115 v 92.5 A 27.54,27.54 0 0 0 146,462 h 60 a 27.54,27.54 0 0 0 27.5,-27.5 z"
         id="path134" /><path
         d="M 366,252 H 168.5 v 20 H 226 a 22.52,22.52 0 0 1 22.5,22.5 v 140 A 42.55,42.55 0 0 1 206,477 h -37.5 v 7.5 A 27.54,27.54 0 0 0 196,512 h 120 a 27.54,27.54 0 0 0 27.5,-27.5 V 462 H 366 a 27.54,27.54 0 0 0 27.5,-27.5 v -155 A 27.54,27.54 0 0 0 366,252 Z m 12.5,182.5 A 12.52,12.52 0 0 1 366,447 H 343.5 V 267 H 366 a 12.52,12.52 0 0 1 12.5,12.5 z"
         id="path136" /><path
         d="m 176,197 a 7.5,7.5 0 0 0 -7.5,7.5 V 237 h 175 V 204.5 A 7.5,7.5 0 0 0 336,197 Z"
         id="path138" /><path
         d="m 263.5,58.86 h 50.58 a 29.42,29.42 0 1 0 -7.14,-58 l -41.4,10.35 a 22.48,22.48 0 0 0 -17,21.83 V 182 h 15 z"
         id="path140" /><path
         d="M 157.92,108.86 H 208.5 V 182 h 15 V 83.07 a 22.47,22.47 0 0 0 -17,-21.83 L 165.1,50.89 a 29.42,29.42 0 1 0 -7.14,58 z"
         id="path142" /><path
         d="M 288.5,113.07 V 182 h 15 v -43.14 h 50.58 a 29.42,29.42 0 1 0 -7.14,-58 l -41.4,10.35 a 22.47,22.47 0 0 0 -17.04,21.86 z"
         id="path144" /></g></g></svg>
