<?xml version="1.0" encoding="UTF-8" standalone="no"?>
<!-- Generator: Adobe Illustrator 25.3.1, SVG Export Plug-In . SVG Version: 6.00 Build 0)  -->

<svg
   version="1.1"
   id="Layer_1"
   x="0px"
   y="0px"
   viewBox="0 0 194.72798 232.92569"
   xml:space="preserve"
   sodipodi:docname="SpinDirection.svg"
   inkscape:version="1.2.2 (732a01da63, 2022-12-09)"
   inkscape:export-filename="..\..\..\Repos\GolfIn Post Shot\Images\SpinDirection.svg"
   inkscape:export-xdpi="96"
   inkscape:export-ydpi="96"
   width="194.72798"
   height="232.92569"
   xmlns:inkscape="http://www.inkscape.org/namespaces/inkscape"
   xmlns:sodipodi="http://sodipodi.sourceforge.net/DTD/sodipodi-0.dtd"
   xmlns="http://www.w3.org/2000/svg"
   xmlns:svg="http://www.w3.org/2000/svg"><defs
   id="defs18" /><sodipodi:namedview
   id="namedview16"
   pagecolor="#505050"
   bordercolor="#eeeeee"
   borderopacity="1"
   inkscape:showpageshadow="0"
   inkscape:pageopacity="0"
   inkscape:pagecheckerboard="0"
   inkscape:deskcolor="#505050"
   showgrid="false"
   inkscape:zoom="1"
   inkscape:cx="1265"
   inkscape:cy="174"
   inkscape:window-width="3840"
   inkscape:window-height="2066"
   inkscape:window-x="2869"
   inkscape:window-y="-11"
   inkscape:window-maximized="1"
   inkscape:current-layer="Layer_1" />
<style
   type="text/css"
   id="style11">
	.st0{fill:#27AAE1;}
</style>
<path
   class="st0"
   d="M 112.53214,7.1999998 55.532184,-1.8554688e-7 60.382184,11.5 l -1.35,0.55 c -2.05,0.9 -4,1.85 -5.9,2.85 -3.85,2 -7.55,4.15 -11.1,6.55 -7.1,4.8 -13.7,10.350038 -19.45,16.800037 -2.85,3.200001 -5.55,6.6 -7.95,10.150001 -2.4,3.55 -4.5,7.3 -6.3500004,11.15 -1.85,3.849997 -3.3,7.799997 -4.55004,11.799997 l -0.85,3.05 c -0.15,0.5 -0.3,1 -0.4,1.5 l -0.35,1.5 -0.35,1.5 -0.3,1.55 -0.3,1.55 c -0.1,0.5 -0.15,1 -0.25,1.55 -1.2,8.2 -1.25,16.4 -0.1,24.399995 1.1,8 3.35004,15.7 6.45004,22.85 3.1500004,7.19996 7.2000004,13.84996 12.0500004,19.79996 4.8,5.95 10.35,11.2 16.4,15.6 -5.1,-5.45 -9.5,-11.5 -12.95,-17.9 -3.5,-6.4 -6,-13.24996 -7.6,-20.14996 -1.6,-6.95 -2.25,-14 -1.9,-20.85 0.3,-6.9 1.65,-13.649995 3.85,-19.949995 0.15,-0.4 0.25,-0.8 0.4,-1.2 l 0.45,-1.15 0.45,-1.15 0.5,-1.15 0.5,-1.15 c 0.15,-0.4 0.35,-0.75 0.55,-1.1 l 1.1,-2.2 c 1.55,-2.9 3.25,-5.7 5.15,-8.3 1.9,-2.6 4,-5.05 6.25,-7.3 2.25,-2.249998 4.65,-4.349998 7.2,-6.249998 5.05,-3.85 10.65,-7 16.5,-9.5 2.95,-1.25 5.95,-2.3 8.95,-3.2 1.5,-0.45 3,-0.85 4.5,-1.2 l 1.1,-0.25 1.1,-0.2 c 0.35,-0.05 0.7,-0.15 1,-0.15 0.1,0 0.2,-0.05 0.25,-0.05 l 4.7,11.15 z"
   id="path13"
   style="fill:#fd9c38;fill-opacity:1;stroke-width:0.5" /><path
   class="st0"
   d="m 82.195814,225.72568 56.999956,7.2 -4.85,-11.5 1.35,-0.55 c 2.05,-0.9 4,-1.85 5.9,-2.85 3.85,-2 7.55,-4.15 11.1,-6.55 7.1,-4.8 13.7,-10.35004 19.45,-16.80004 2.85,-3.2 5.55,-6.6 7.95,-10.15 2.4,-3.55 4.5,-7.3 6.35001,-11.15 1.85,-3.85 3.3,-7.8 4.55004,-11.8 l 0.85,-3.05 c 0.15,-0.5 0.3,-1 0.4,-1.5 l 0.35,-1.5 0.35,-1.5 0.3,-1.55 0.3,-1.55 c 0.1,-0.5 0.15,-1 0.25,-1.55 1.2,-8.2 1.25,-16.4 0.1,-24.4 -1.1,-8 -3.35004,-15.7 -6.45004,-22.85 -3.15001,-7.199955 -7.20001,-13.849955 -12.05001,-19.799955 -4.8,-5.95 -10.35,-11.2 -16.4,-15.6 5.1,5.45 9.5,11.5 12.95,17.9 3.5,6.4 6,13.24996 7.6,20.149955 1.6,6.95 2.25,14 1.9,20.85 -0.3,6.9 -1.65,13.65 -3.85,19.95 -0.15,0.4 -0.25,0.8 -0.4,1.2 l -0.45,1.15 -0.45,1.15 -0.5,1.15 -0.5,1.15 c -0.15,0.4 -0.35,0.75 -0.55,1.1 l -1.1,2.2 c -1.55,2.9 -3.25,5.7 -5.15,8.3 -1.9,2.6 -4,5.05 -6.25,7.3 -2.25,2.25 -4.65,4.35 -7.2,6.25 -5.05,3.85 -10.65,7 -16.5,9.5 -2.95,1.25 -5.95,2.3 -8.95,3.2 -1.5,0.45 -3,0.85 -4.5,1.2 l -1.1,0.25 -1.1,0.2 c -0.35,0.05 -0.7,0.15 -1,0.15 -0.1,0 -0.2,0.05 -0.25,0.05 l -4.7,-11.15 z"
   id="path13-5"
   style="fill:#fd9c38;fill-opacity:1;stroke-width:0.5" />
</svg>
